<mxfile host="app.diagrams.net" modified="2022-06-11T15:38:28.795Z" agent="5.0 (Windows NT 10.0; Win64; x64) AppleWebKit/537.36 (KHTML, like Gecko) Chrome/101.0.4951.64 Safari/537.36 Edg/101.0.1210.53" etag="haFzhpJQDWtmyPuGJQuT" version="17.4.6" type="github">
  <diagram id="mOjuJ6WN1EKOCqIKnFiR" name="Page-1">
    <mxGraphModel dx="1038" dy="547" grid="1" gridSize="10" guides="1" tooltips="1" connect="1" arrows="1" fold="1" page="1" pageScale="1" pageWidth="827" pageHeight="1169" math="0" shadow="0">
      <root>
        <mxCell id="0" />
        <mxCell id="1" parent="0" />
        <mxCell id="M15Qep5zSb0vv19JgrIz-1" value="15" style="ellipse;whiteSpace=wrap;html=1;aspect=fixed;" vertex="1" parent="1">
          <mxGeometry x="374" y="60" width="40" height="40" as="geometry" />
        </mxCell>
        <mxCell id="M15Qep5zSb0vv19JgrIz-2" value="[0,4]" style="text;html=1;align=center;verticalAlign=middle;resizable=0;points=[];autosize=1;strokeColor=none;fillColor=none;" vertex="1" parent="1">
          <mxGeometry x="374" y="100" width="40" height="20" as="geometry" />
        </mxCell>
        <mxCell id="M15Qep5zSb0vv19JgrIz-3" value="6" style="ellipse;whiteSpace=wrap;html=1;aspect=fixed;" vertex="1" parent="1">
          <mxGeometry x="280" y="140" width="40" height="40" as="geometry" />
        </mxCell>
        <mxCell id="M15Qep5zSb0vv19JgrIz-4" value="[0,2]" style="text;html=1;align=center;verticalAlign=middle;resizable=0;points=[];autosize=1;strokeColor=none;fillColor=none;" vertex="1" parent="1">
          <mxGeometry x="280" y="180" width="40" height="20" as="geometry" />
        </mxCell>
        <mxCell id="M15Qep5zSb0vv19JgrIz-5" value="9" style="ellipse;whiteSpace=wrap;html=1;aspect=fixed;" vertex="1" parent="1">
          <mxGeometry x="460" y="140" width="40" height="40" as="geometry" />
        </mxCell>
        <mxCell id="M15Qep5zSb0vv19JgrIz-6" value="[3,4]" style="text;html=1;align=center;verticalAlign=middle;resizable=0;points=[];autosize=1;strokeColor=none;fillColor=none;" vertex="1" parent="1">
          <mxGeometry x="460" y="180" width="40" height="20" as="geometry" />
        </mxCell>
        <mxCell id="M15Qep5zSb0vv19JgrIz-7" value="3" style="ellipse;whiteSpace=wrap;html=1;aspect=fixed;" vertex="1" parent="1">
          <mxGeometry x="220" y="210" width="40" height="40" as="geometry" />
        </mxCell>
        <mxCell id="M15Qep5zSb0vv19JgrIz-8" value="[0,1]" style="text;html=1;align=center;verticalAlign=middle;resizable=0;points=[];autosize=1;strokeColor=none;fillColor=none;" vertex="1" parent="1">
          <mxGeometry x="220" y="250" width="40" height="20" as="geometry" />
        </mxCell>
        <mxCell id="M15Qep5zSb0vv19JgrIz-11" value="3" style="ellipse;whiteSpace=wrap;html=1;aspect=fixed;" vertex="1" parent="1">
          <mxGeometry x="330" y="210" width="40" height="40" as="geometry" />
        </mxCell>
        <mxCell id="M15Qep5zSb0vv19JgrIz-12" value="[2,2]" style="text;html=1;align=center;verticalAlign=middle;resizable=0;points=[];autosize=1;strokeColor=none;fillColor=none;" vertex="1" parent="1">
          <mxGeometry x="330" y="250" width="40" height="20" as="geometry" />
        </mxCell>
        <mxCell id="M15Qep5zSb0vv19JgrIz-13" value="4" style="ellipse;whiteSpace=wrap;html=1;aspect=fixed;" vertex="1" parent="1">
          <mxGeometry x="400" y="210" width="40" height="40" as="geometry" />
        </mxCell>
        <mxCell id="M15Qep5zSb0vv19JgrIz-14" value="[3,3]" style="text;html=1;align=center;verticalAlign=middle;resizable=0;points=[];autosize=1;strokeColor=none;fillColor=none;" vertex="1" parent="1">
          <mxGeometry x="400" y="250" width="40" height="20" as="geometry" />
        </mxCell>
        <mxCell id="M15Qep5zSb0vv19JgrIz-15" value="5" style="ellipse;whiteSpace=wrap;html=1;aspect=fixed;" vertex="1" parent="1">
          <mxGeometry x="510" y="210" width="40" height="40" as="geometry" />
        </mxCell>
        <mxCell id="M15Qep5zSb0vv19JgrIz-16" value="[4,4]" style="text;html=1;align=center;verticalAlign=middle;resizable=0;points=[];autosize=1;strokeColor=none;fillColor=none;" vertex="1" parent="1">
          <mxGeometry x="510" y="250" width="40" height="20" as="geometry" />
        </mxCell>
        <mxCell id="M15Qep5zSb0vv19JgrIz-17" value="1" style="ellipse;whiteSpace=wrap;html=1;aspect=fixed;" vertex="1" parent="1">
          <mxGeometry x="160" y="280" width="40" height="40" as="geometry" />
        </mxCell>
        <mxCell id="M15Qep5zSb0vv19JgrIz-18" value="[0,0]" style="text;html=1;align=center;verticalAlign=middle;resizable=0;points=[];autosize=1;strokeColor=none;fillColor=none;" vertex="1" parent="1">
          <mxGeometry x="160" y="320" width="40" height="20" as="geometry" />
        </mxCell>
        <mxCell id="M15Qep5zSb0vv19JgrIz-19" value="2" style="ellipse;whiteSpace=wrap;html=1;aspect=fixed;" vertex="1" parent="1">
          <mxGeometry x="270" y="280" width="40" height="40" as="geometry" />
        </mxCell>
        <mxCell id="M15Qep5zSb0vv19JgrIz-20" value="[1,1]" style="text;html=1;align=center;verticalAlign=middle;resizable=0;points=[];autosize=1;strokeColor=none;fillColor=none;" vertex="1" parent="1">
          <mxGeometry x="270" y="320" width="40" height="20" as="geometry" />
        </mxCell>
        <mxCell id="M15Qep5zSb0vv19JgrIz-21" value="" style="endArrow=none;html=1;rounded=0;entryX=0;entryY=1;entryDx=0;entryDy=0;exitX=1;exitY=0;exitDx=0;exitDy=0;" edge="1" parent="1" source="M15Qep5zSb0vv19JgrIz-3" target="M15Qep5zSb0vv19JgrIz-1">
          <mxGeometry width="50" height="50" relative="1" as="geometry">
            <mxPoint x="290" y="130" as="sourcePoint" />
            <mxPoint x="340" y="80" as="targetPoint" />
          </mxGeometry>
        </mxCell>
        <mxCell id="M15Qep5zSb0vv19JgrIz-22" value="" style="endArrow=none;html=1;rounded=0;entryX=1;entryY=1;entryDx=0;entryDy=0;exitX=0;exitY=0;exitDx=0;exitDy=0;" edge="1" parent="1" source="M15Qep5zSb0vv19JgrIz-5" target="M15Qep5zSb0vv19JgrIz-1">
          <mxGeometry width="50" height="50" relative="1" as="geometry">
            <mxPoint x="440.14213562373106" y="135.85786437626894" as="sourcePoint" />
            <mxPoint x="500" y="70" as="targetPoint" />
          </mxGeometry>
        </mxCell>
        <mxCell id="M15Qep5zSb0vv19JgrIz-23" value="" style="endArrow=none;html=1;rounded=0;entryX=1;entryY=1;entryDx=0;entryDy=0;exitX=0;exitY=0;exitDx=0;exitDy=0;" edge="1" parent="1" source="M15Qep5zSb0vv19JgrIz-15" target="M15Qep5zSb0vv19JgrIz-5">
          <mxGeometry width="50" height="50" relative="1" as="geometry">
            <mxPoint x="520" y="220" as="sourcePoint" />
            <mxPoint x="490" y="180" as="targetPoint" />
          </mxGeometry>
        </mxCell>
        <mxCell id="M15Qep5zSb0vv19JgrIz-24" value="" style="endArrow=none;html=1;rounded=0;entryX=1;entryY=1;entryDx=0;entryDy=0;exitX=0;exitY=0;exitDx=0;exitDy=0;" edge="1" parent="1" target="M15Qep5zSb0vv19JgrIz-3">
          <mxGeometry width="50" height="50" relative="1" as="geometry">
            <mxPoint x="335.85786437626894" y="215.85786437626894" as="sourcePoint" />
            <mxPoint x="310" y="180" as="targetPoint" />
          </mxGeometry>
        </mxCell>
        <mxCell id="M15Qep5zSb0vv19JgrIz-25" value="" style="endArrow=none;html=1;rounded=0;exitX=1;exitY=0;exitDx=0;exitDy=0;entryX=0;entryY=1;entryDx=0;entryDy=0;" edge="1" parent="1" source="M15Qep5zSb0vv19JgrIz-13" target="M15Qep5zSb0vv19JgrIz-5">
          <mxGeometry width="50" height="50" relative="1" as="geometry">
            <mxPoint x="465.85786437626894" y="209.99786437626892" as="sourcePoint" />
            <mxPoint x="460" y="170" as="targetPoint" />
          </mxGeometry>
        </mxCell>
        <mxCell id="M15Qep5zSb0vv19JgrIz-26" value="" style="endArrow=none;html=1;rounded=0;entryX=0;entryY=1;entryDx=0;entryDy=0;exitX=1;exitY=0;exitDx=0;exitDy=0;" edge="1" parent="1" target="M15Qep5zSb0vv19JgrIz-3">
          <mxGeometry width="50" height="50" relative="1" as="geometry">
            <mxPoint x="254.54213562373107" y="215.65786437626895" as="sourcePoint" />
            <mxPoint x="279.9999999999999" y="170.00000000000006" as="targetPoint" />
          </mxGeometry>
        </mxCell>
        <mxCell id="M15Qep5zSb0vv19JgrIz-27" value="" style="endArrow=none;html=1;rounded=0;entryX=0;entryY=1;entryDx=0;entryDy=0;exitX=1;exitY=0;exitDx=0;exitDy=0;" edge="1" parent="1" source="M15Qep5zSb0vv19JgrIz-17" target="M15Qep5zSb0vv19JgrIz-7">
          <mxGeometry width="50" height="50" relative="1" as="geometry">
            <mxPoint x="188.68213562373114" y="291.5178643762689" as="sourcePoint" />
            <mxPoint x="219.99786437626892" y="250.00213562373108" as="targetPoint" />
          </mxGeometry>
        </mxCell>
        <mxCell id="M15Qep5zSb0vv19JgrIz-28" value="" style="endArrow=none;html=1;rounded=0;entryX=1;entryY=1;entryDx=0;entryDy=0;exitX=0;exitY=0;exitDx=0;exitDy=0;" edge="1" parent="1" source="M15Qep5zSb0vv19JgrIz-19" target="M15Qep5zSb0vv19JgrIz-7">
          <mxGeometry width="50" height="50" relative="1" as="geometry">
            <mxPoint x="248.28213562373105" y="291.71786437626895" as="sourcePoint" />
            <mxPoint x="279.9978643762689" y="250.00213562373108" as="targetPoint" />
          </mxGeometry>
        </mxCell>
      </root>
    </mxGraphModel>
  </diagram>
</mxfile>
